<mxfile host="app.diagrams.net" modified="2021-10-05T15:11:54.686Z" agent="5.0 (Windows NT 10.0; Win64; x64) AppleWebKit/537.36 (KHTML, like Gecko) Chrome/94.0.4606.71 Safari/537.36 Edg/94.0.992.38" etag="onih_nufvcV35q2NmOu3" version="15.4.1" type="github">
  <diagram id="37qkrGA-qiBt7yX1-RLJ" name="Page-1">
    <mxGraphModel dx="804" dy="522" grid="0" gridSize="10" guides="1" tooltips="1" connect="1" arrows="1" fold="1" page="1" pageScale="1" pageWidth="827" pageHeight="1169" math="0" shadow="1">
      <root>
        <mxCell id="0" />
        <mxCell id="1" parent="0" />
        <mxCell id="zghn17i_CsrTUizmseol-34" style="edgeStyle=orthogonalEdgeStyle;rounded=0;orthogonalLoop=1;jettySize=auto;html=1;exitX=1;exitY=0.5;exitDx=0;exitDy=0;entryX=0;entryY=0.5;entryDx=0;entryDy=0;fontSize=11;" edge="1" parent="1" source="zghn17i_CsrTUizmseol-2" target="zghn17i_CsrTUizmseol-18">
          <mxGeometry relative="1" as="geometry">
            <Array as="points">
              <mxPoint x="310" y="260" />
              <mxPoint x="310" y="227" />
            </Array>
          </mxGeometry>
        </mxCell>
        <mxCell id="zghn17i_CsrTUizmseol-35" value="LIN" style="edgeStyle=orthogonalEdgeStyle;rounded=0;orthogonalLoop=1;jettySize=auto;html=1;entryX=0;entryY=0.75;entryDx=0;entryDy=0;fontSize=12;fontStyle=1" edge="1" parent="1" source="zghn17i_CsrTUizmseol-2" target="zghn17i_CsrTUizmseol-9">
          <mxGeometry x="0.6701" relative="1" as="geometry">
            <Array as="points">
              <mxPoint x="310" y="260" />
              <mxPoint x="310" y="283" />
            </Array>
            <mxPoint x="1" as="offset" />
          </mxGeometry>
        </mxCell>
        <mxCell id="zghn17i_CsrTUizmseol-2" value="&lt;h2 style=&quot;line-height: 1&quot;&gt;Vi&lt;br&gt;Điều&lt;br&gt;Khiển&lt;/h2&gt;" style="rounded=1;whiteSpace=wrap;html=1;" vertex="1" parent="1">
          <mxGeometry x="190" y="180" width="80" height="160" as="geometry" />
        </mxCell>
        <mxCell id="zghn17i_CsrTUizmseol-21" value="INT" style="edgeStyle=orthogonalEdgeStyle;rounded=0;orthogonalLoop=1;jettySize=auto;html=1;exitX=1;exitY=0.5;exitDx=0;exitDy=0;entryX=0;entryY=0.25;entryDx=0;entryDy=0;" edge="1" parent="1" source="zghn17i_CsrTUizmseol-3" target="zghn17i_CsrTUizmseol-2">
          <mxGeometry x="-0.6135" relative="1" as="geometry">
            <mxPoint as="offset" />
          </mxGeometry>
        </mxCell>
        <mxCell id="zghn17i_CsrTUizmseol-3" value="START" style="rounded=1;whiteSpace=wrap;html=1;" vertex="1" parent="1">
          <mxGeometry x="50" y="166.5" width="70" height="40" as="geometry" />
        </mxCell>
        <mxCell id="zghn17i_CsrTUizmseol-22" value="INT" style="edgeStyle=orthogonalEdgeStyle;rounded=0;orthogonalLoop=1;jettySize=auto;html=1;exitX=1;exitY=0.5;exitDx=0;exitDy=0;entryX=0;entryY=0.5;entryDx=0;entryDy=0;" edge="1" parent="1" source="zghn17i_CsrTUizmseol-4" target="zghn17i_CsrTUizmseol-2">
          <mxGeometry x="-0.5812" relative="1" as="geometry">
            <mxPoint x="190" y="220" as="targetPoint" />
            <mxPoint as="offset" />
          </mxGeometry>
        </mxCell>
        <mxCell id="zghn17i_CsrTUizmseol-4" value="STOP" style="rounded=1;whiteSpace=wrap;html=1;" vertex="1" parent="1">
          <mxGeometry x="50" y="214.5" width="70" height="40" as="geometry" />
        </mxCell>
        <mxCell id="zghn17i_CsrTUizmseol-30" value="INT" style="edgeStyle=orthogonalEdgeStyle;rounded=0;orthogonalLoop=1;jettySize=auto;html=1;exitX=1;exitY=0.5;exitDx=0;exitDy=0;entryX=0;entryY=0.5;entryDx=0;entryDy=0;fontSize=11;" edge="1" parent="1" source="zghn17i_CsrTUizmseol-5" target="zghn17i_CsrTUizmseol-2">
          <mxGeometry x="-0.5429" relative="1" as="geometry">
            <mxPoint as="offset" />
          </mxGeometry>
        </mxCell>
        <mxCell id="zghn17i_CsrTUizmseol-5" value="REVERSE" style="rounded=1;whiteSpace=wrap;html=1;" vertex="1" parent="1">
          <mxGeometry x="50" y="262.5" width="70" height="40" as="geometry" />
        </mxCell>
        <mxCell id="zghn17i_CsrTUizmseol-31" value="ADC" style="edgeStyle=orthogonalEdgeStyle;rounded=0;orthogonalLoop=1;jettySize=auto;html=1;entryX=0;entryY=0.75;entryDx=0;entryDy=0;fontSize=11;" edge="1" parent="1" source="zghn17i_CsrTUizmseol-6" target="zghn17i_CsrTUizmseol-2">
          <mxGeometry x="-0.6135" relative="1" as="geometry">
            <mxPoint as="offset" />
          </mxGeometry>
        </mxCell>
        <mxCell id="zghn17i_CsrTUizmseol-6" value="SPEED" style="rounded=1;whiteSpace=wrap;html=1;" vertex="1" parent="1">
          <mxGeometry x="50" y="313.5" width="70" height="40" as="geometry" />
        </mxCell>
        <mxCell id="zghn17i_CsrTUizmseol-36" value="&lt;h3&gt;Hall A/B/C&lt;/h3&gt;" style="edgeStyle=orthogonalEdgeStyle;rounded=0;orthogonalLoop=1;jettySize=auto;entryX=0.5;entryY=0;entryDx=0;entryDy=0;fontSize=12;html=1;fontColor=default;labelBackgroundColor=none;" edge="1" parent="1" source="zghn17i_CsrTUizmseol-7" target="zghn17i_CsrTUizmseol-2">
          <mxGeometry y="-8" relative="1" as="geometry">
            <Array as="points">
              <mxPoint x="800" y="260" />
              <mxPoint x="800" y="140" />
              <mxPoint x="230" y="140" />
            </Array>
            <mxPoint as="offset" />
          </mxGeometry>
        </mxCell>
        <mxCell id="zghn17i_CsrTUizmseol-7" value="&lt;h3&gt;Động cơ&lt;br&gt;BLDC&lt;/h3&gt;" style="ellipse;whiteSpace=wrap;html=1;aspect=fixed;" vertex="1" parent="1">
          <mxGeometry x="700" y="220" width="80" height="80" as="geometry" />
        </mxCell>
        <mxCell id="zghn17i_CsrTUizmseol-27" style="edgeStyle=orthogonalEdgeStyle;rounded=0;orthogonalLoop=1;jettySize=auto;html=1;exitX=0.5;exitY=0;exitDx=0;exitDy=0;entryX=0.5;entryY=1;entryDx=0;entryDy=0;" edge="1" parent="1" source="zghn17i_CsrTUizmseol-8" target="zghn17i_CsrTUizmseol-2">
          <mxGeometry relative="1" as="geometry" />
        </mxCell>
        <mxCell id="zghn17i_CsrTUizmseol-28" style="edgeStyle=orthogonalEdgeStyle;rounded=0;orthogonalLoop=1;jettySize=auto;html=1;exitX=1;exitY=0.5;exitDx=0;exitDy=0;entryX=0.5;entryY=1;entryDx=0;entryDy=0;" edge="1" parent="1" source="zghn17i_CsrTUizmseol-8" target="zghn17i_CsrTUizmseol-11">
          <mxGeometry relative="1" as="geometry" />
        </mxCell>
        <mxCell id="zghn17i_CsrTUizmseol-8" value="&lt;h3&gt;Khối nguồn&lt;/h3&gt;" style="rounded=0;whiteSpace=wrap;html=1;" vertex="1" parent="1">
          <mxGeometry x="170" y="390" width="120" height="60" as="geometry" />
        </mxCell>
        <mxCell id="zghn17i_CsrTUizmseol-11" value="Mạch lái Phase A/B/C" style="swimlane;startSize=23;" vertex="1" parent="1">
          <mxGeometry x="470" y="160" width="200" height="170" as="geometry" />
        </mxCell>
        <mxCell id="zghn17i_CsrTUizmseol-14" style="edgeStyle=orthogonalEdgeStyle;rounded=0;orthogonalLoop=1;jettySize=auto;html=1;exitX=1;exitY=0.5;exitDx=0;exitDy=0;entryX=0;entryY=0.5;entryDx=0;entryDy=0;" edge="1" parent="zghn17i_CsrTUizmseol-11" source="zghn17i_CsrTUizmseol-9" target="zghn17i_CsrTUizmseol-10">
          <mxGeometry relative="1" as="geometry">
            <Array as="points">
              <mxPoint x="110" y="100" />
              <mxPoint x="110" y="60" />
            </Array>
          </mxGeometry>
        </mxCell>
        <mxCell id="zghn17i_CsrTUizmseol-15" style="edgeStyle=orthogonalEdgeStyle;rounded=0;orthogonalLoop=1;jettySize=auto;html=1;exitX=1;exitY=0.5;exitDx=0;exitDy=0;entryX=0;entryY=0.5;entryDx=0;entryDy=0;" edge="1" parent="zghn17i_CsrTUizmseol-11" source="zghn17i_CsrTUizmseol-9" target="zghn17i_CsrTUizmseol-12">
          <mxGeometry relative="1" as="geometry">
            <Array as="points">
              <mxPoint x="110" y="100" />
              <mxPoint x="110" y="130" />
            </Array>
          </mxGeometry>
        </mxCell>
        <mxCell id="zghn17i_CsrTUizmseol-9" value="&lt;h3&gt;IR2101&lt;/h3&gt;" style="rounded=1;whiteSpace=wrap;html=1;" vertex="1" parent="zghn17i_CsrTUizmseol-11">
          <mxGeometry x="20" y="40" width="70" height="110" as="geometry" />
        </mxCell>
        <mxCell id="zghn17i_CsrTUizmseol-10" value="MOSFET&lt;br&gt;H" style="ellipse;whiteSpace=wrap;html=1;aspect=fixed;" vertex="1" parent="zghn17i_CsrTUizmseol-11">
          <mxGeometry x="130" y="30" width="60" height="60" as="geometry" />
        </mxCell>
        <mxCell id="zghn17i_CsrTUizmseol-12" value="MOSFET&lt;br&gt;L" style="ellipse;whiteSpace=wrap;html=1;aspect=fixed;" vertex="1" parent="zghn17i_CsrTUizmseol-11">
          <mxGeometry x="130" y="100" width="60" height="60" as="geometry" />
        </mxCell>
        <mxCell id="zghn17i_CsrTUizmseol-16" style="edgeStyle=orthogonalEdgeStyle;rounded=0;orthogonalLoop=1;jettySize=auto;html=1;entryX=0;entryY=0.5;entryDx=0;entryDy=0;" edge="1" parent="1" source="zghn17i_CsrTUizmseol-10" target="zghn17i_CsrTUizmseol-7">
          <mxGeometry relative="1" as="geometry" />
        </mxCell>
        <mxCell id="zghn17i_CsrTUizmseol-17" style="edgeStyle=orthogonalEdgeStyle;rounded=0;orthogonalLoop=1;jettySize=auto;html=1;" edge="1" parent="1" source="zghn17i_CsrTUizmseol-12">
          <mxGeometry relative="1" as="geometry">
            <mxPoint x="700" y="260" as="targetPoint" />
          </mxGeometry>
        </mxCell>
        <mxCell id="zghn17i_CsrTUizmseol-33" value="HIN" style="edgeStyle=orthogonalEdgeStyle;rounded=0;orthogonalLoop=1;jettySize=auto;html=1;entryX=0;entryY=0.25;entryDx=0;entryDy=0;fontSize=12;fontStyle=1" edge="1" parent="1" source="zghn17i_CsrTUizmseol-18" target="zghn17i_CsrTUizmseol-9">
          <mxGeometry relative="1" as="geometry" />
        </mxCell>
        <mxCell id="zghn17i_CsrTUizmseol-18" value="&lt;h3&gt;Điều xung PWM&lt;/h3&gt;" style="rounded=1;whiteSpace=wrap;html=1;" vertex="1" parent="1">
          <mxGeometry x="334" y="204.5" width="80" height="45.5" as="geometry" />
        </mxCell>
      </root>
    </mxGraphModel>
  </diagram>
</mxfile>
